<svg width="27" height="22" viewBox="0 0 27 22" fill="none" xmlns="http://www.w3.org/2000/svg">
<path d="M10.125 17.4163C11.4539 17.4163 12.5362 18.4448 12.5362 19.7087C12.5362 20.9715 11.4539 22 10.125 22C8.79613 22 7.71378 20.9715 7.71378 19.7087C7.71378 18.4437 8.79613 17.4163 10.125 17.4163ZM21.6963 17.4163C23.0251 17.4163 24.1075 18.4448 24.1075 19.7087C24.1075 20.9715 23.0251 22 21.6963 22C20.3674 22 19.2862 20.9715 19.2862 19.7087C19.2862 18.4437 20.3662 17.4163 21.6963 17.4163ZM10.125 18.9453C9.91038 18.9468 9.70514 19.028 9.55437 19.1711C9.4036 19.3142 9.31962 19.5076 9.32087 19.7087C9.31962 19.9098 9.4036 20.1032 9.55437 20.2463C9.70514 20.3894 9.91038 20.4706 10.125 20.4721C10.3396 20.4706 10.5449 20.3894 10.6956 20.2463C10.8464 20.1032 10.9304 19.9098 10.9291 19.7087C10.9299 19.609 10.9097 19.5102 10.8697 19.4178C10.8297 19.3255 10.7707 19.2414 10.696 19.1704C10.6214 19.0994 10.5325 19.0429 10.4345 19.0041C10.3365 18.9653 10.2314 18.946 10.125 18.9453ZM21.6963 18.9453C21.4818 18.947 21.2769 19.0284 21.1264 19.1715C20.9759 19.3146 20.8921 19.5078 20.8933 19.7087C20.8921 19.9096 20.9759 20.1028 21.1264 20.2459C21.2769 20.389 21.4818 20.4704 21.6963 20.4721C21.9109 20.4706 22.1161 20.3894 22.2669 20.2463C22.4177 20.1032 22.5016 19.9098 22.5004 19.7087C22.5012 19.609 22.481 19.5102 22.441 19.4178C22.401 19.3255 22.342 19.2414 22.2673 19.1704C22.1926 19.0994 22.1038 19.0429 22.0058 19.0041C21.9078 18.9653 21.8026 18.946 21.6963 18.9453ZM5.53735 0C5.9083 0 6.22996 0.2365 6.30978 0.5687L6.87443 2.9029H26.2088C26.3305 2.90262 26.4507 2.92845 26.5602 2.9784C26.6697 3.02836 26.7655 3.10111 26.8403 3.1911C26.9894 3.3737 27.0376 3.6091 26.9695 3.828L23.8058 13.9876C23.7566 14.1405 23.6559 14.2743 23.5188 14.3691C23.3817 14.4639 23.2155 14.5145 23.0451 14.5134H8.6987C8.49123 14.5116 8.2915 14.5871 8.14337 14.7232C7.99524 14.8594 7.91082 15.045 7.90865 15.2394C7.90865 15.6398 8.26435 15.9654 8.69987 15.9654H23.0439C23.4806 15.9654 23.8351 16.2899 23.8351 16.6914C23.8351 17.0918 23.4806 17.4174 23.0439 17.4174H8.70104C7.39213 17.4174 6.32856 16.4395 6.32856 15.2394C6.32856 14.3462 6.91787 13.5773 7.75839 13.2418L4.90226 1.452H0.791217C0.688391 1.45302 0.586358 1.43504 0.490944 1.39911C0.395531 1.36317 0.308606 1.30998 0.235133 1.24256C0.161661 1.17514 0.10308 1.09483 0.0627355 1.0062C0.0223911 0.917563 0.00107348 0.822352 0 0.726C0 0.3256 0.354522 0 0.791217 0H5.53735ZM25.1605 4.3538H7.22661L9.33613 13.0625H22.4487L25.1605 4.3538Z" fill="white"/>
<path d="M7.42578 4.5H25L22.3481 13H9.37981L7.42578 4.5Z" fill="none"/>
</svg>
